<svg xmlns="http://www.w3.org/2000/svg" width="22.68" height="14.433" viewBox="0 0 22.68 14.433">
  <path id="user-group-man-man" d="M8.216,5a3.093,3.093,0,1,0,3.093,3.093A3.093,3.093,0,0,0,8.216,5Zm8.247,0a3.093,3.093,0,1,0,3.093,3.093A3.093,3.093,0,0,0,16.464,5ZM8.216,13.247C5.124,13.247,1,14.756,1,16.855v2.577H15.433V16.855C15.433,14.756,11.309,13.247,8.216,13.247Zm8.247,0c-.327,0-.666.02-1.009.052a4.394,4.394,0,0,1,2.04,3.556v2.577H23.68V16.855C23.68,14.756,19.556,13.247,16.464,13.247Z" transform="translate(-1 -5)" fill="#fff"/>
</svg>
